# xmcd
#
# Track frame offsets: 
#        150
#        22606
#        46044
#        64595
#        89350
#        108367
#        125938
#        149959
#        179690
#        195644
#        209761
#        230368
#
# Disc length: 3455 seconds
#
# Revision: 0
# Processed by: cddbd v1.5.2PL0 Copyright (c) Steve Scherf et al.
# Submitted via: ExactAudioCopy v0.99pb4
#
DISCID=b10d7d0c
DTITLE=Meena - Try Me
DYEAR=2010
DGENRE=Blues
TTITLE0=Try Me (with Joanne Shaw Taylor)
TTITLE1=Nothing Left (with Joanne Shaw Taylor)
TTITLE2=Send Me A Doctor (with Eric Sardinas)
TTITLE3=Put Your Hands Out Of My Pocket
TTITLE4=Sorry
TTITLE5=I'm Leaving You (with Joanne Shaw Taylor)
TTITLE6=This Song Is For You
TTITLE7=I'd Rather Go Blind (with Donna Grantis)
TTITLE8=Love Won't Fall Apart
TTITLE9=Let Your Sweet Love Shine On Me (with Joanne Shaw Taylor)
TTITLE10=I Shoot You Down (with Eric Sardinas and Erja Lyytinen)
TTITLE11=Just As I Am (with Coco Montoya and Shakura S'Aida)
EXTD=
EXTT0=
EXTT1=
EXTT2=
EXTT3=
EXTT4=
EXTT5=
EXTT6=
EXTT7=
EXTT8=
EXTT9=
EXTT10=
EXTT11=
PLAYORDER=
